<svg xmlns="http://www.w3.org/2000/svg" viewBox="0 0 512 512"><defs><style>.cls-1{fill:#f39200;}.cls-2{fill:#f6f6f6;}</style></defs><title>eResurs 10</title><g id="Lager_2" data-name="Lager 2"><g id="Lager_1-2" data-name="Lager 1"><path class="cls-1" d="M0,414.07,70.36,352.2q71.81,70,161.54,70,75.75,0,127.62-47.77T411.4,256.66q0-48.77-23-86.58t-65-59.38q-42-21.54-93.34-21.56-43.79,0-80.05,15.1t-79.7,54.89L2.16,93.49q58.56-52.72,110.66-73.1T231.75,0Q355,0,433.49,72.08T512,256.83q0,72.9-35.75,129.57t-102.4,91.14Q307.21,512,230.31,512a321.43,321.43,0,0,1-125.93-25.48A300.4,300.4,0,0,1,0,414.07Z"/><ellipse id="_Bana_" data-name="&lt;Bana&gt;" class="cls-2" cx="228.75" cy="255.83" rx="206.12" ry="185.13"/><path class="cls-1" d="M114.79,276V235.43l227.93-80.85v41.59l-47,16.44V298.4l47,17.1v41.59Zm60.43-20.54,78.25,28.2V227.44Z"/></g></g></svg>