<svg xmlns="http://www.w3.org/2000/svg" viewBox="0 0 350.11 96.13"><defs><style>.cls-1{fill:#f39200;}.cls-2{fill:#f6f6f6;}</style></defs><title>eResurs 12</title><g id="Lager_2" data-name="Lager 2"><g id="Lager_1-2" data-name="Lager 1"><path class="cls-1" d="M0,77.74,13.21,66.13Q26.7,79.27,43.54,79.27q14.22,0,24-9a28.88,28.88,0,0,0,9.74-22.11,30.77,30.77,0,0,0-4.31-16.26,29.91,29.91,0,0,0-12.2-11.15,37.93,37.93,0,0,0-17.53-4,38.74,38.74,0,0,0-15,2.83q-6.8,2.84-15,10.31L.4,17.55q11-9.9,20.78-13.72A61,61,0,0,1,43.51,0Q66.66,0,81.39,13.53T96.13,48.22a44.65,44.65,0,0,1-6.71,24.33A48.47,48.47,0,0,1,70.19,89.66a57.84,57.84,0,0,1-26.95,6.47A60.35,60.35,0,0,1,19.6,91.35,56.43,56.43,0,0,1,0,77.74Z"/><ellipse id="_Bana_" data-name="&lt;Bana&gt;" class="cls-2" cx="42.95" cy="48.03" rx="38.7" ry="34.76"/><path class="cls-1" d="M21.55,51.82V44.2L64.35,29v7.81l-8.82,3.09V56l8.82,3.21V67ZM32.9,48l14.69,5.29V42.7Z"/><path class="cls-2" d="M170.66,30.92,163,38.21Q155.2,30,145.44,30a19.25,19.25,0,0,0-19.51,19.51,20.46,20.46,0,0,0,2.5,10.21,17.94,17.94,0,0,0,7.06,7,20.55,20.55,0,0,0,10.15,2.54,20.86,20.86,0,0,0,8.7-1.78A31.23,31.23,0,0,0,163,61l7.41,7.74q-6.36,6.21-12,8.61a32.73,32.73,0,0,1-12.93,2.41q-13.4,0-21.93-8.5T115,49.45a29.82,29.82,0,0,1,3.89-15.27A28.92,28.92,0,0,1,130,23.44a31.37,31.37,0,0,1,15.61-4.06,33.12,33.12,0,0,1,25,11.54Z"/><path class="cls-2" d="M210.42,35.78h10.66v42.5H210.42V73.79a20.89,20.89,0,0,1-6.26,4.28,17.62,17.62,0,0,1-6.81,1.31A18.9,18.9,0,0,1,183.11,73a22.27,22.27,0,0,1-6-15.88q0-9.84,5.81-16.13A18.52,18.52,0,0,1,197,34.69a18,18,0,0,1,7.18,1.44,19.74,19.74,0,0,1,6.2,4.34Zm-11.21,8.75A10.76,10.76,0,0,0,191,48a12.6,12.6,0,0,0-3.27,9,12.74,12.74,0,0,0,3.32,9.07,10.78,10.78,0,0,0,8.2,3.55,11,11,0,0,0,8.33-3.5A12.75,12.75,0,0,0,210.89,57a12.4,12.4,0,0,0-3.31-9A11.14,11.14,0,0,0,199.21,44.53Z"/><path class="cls-2" d="M230.69,19.38h10.67v58.9H230.69Z"/><path class="cls-2" d="M249.87,19.38h10.67v58.9H249.87Z"/><path class="cls-2" d="M312.8,60.12H278.55a11.35,11.35,0,0,0,4,7.2A12.41,12.41,0,0,0,290.73,70,14.22,14.22,0,0,0,301,65.82L310,70a21.12,21.12,0,0,1-8.05,7,25.17,25.17,0,0,1-11.13,2.29q-10,0-16.29-6.31a21.5,21.5,0,0,1-6.29-15.8,22.21,22.21,0,0,1,6.27-16.16,21.06,21.06,0,0,1,15.72-6.42q10,0,16.33,6.42t6.29,17Zm-10.66-8.4A10.68,10.68,0,0,0,298,45.94a12,12,0,0,0-7.22-2.23,12.79,12.79,0,0,0-7.82,2.5A13.92,13.92,0,0,0,279,51.72Z"/><path class="cls-2" d="M320.26,19.38h10.67v58.9H320.26Z"/><path class="cls-2" d="M339.44,19.38h10.67v58.9H339.44Z"/></g></g></svg>